<?xml version="1.0" encoding="utf-8"?>
<!-- Generator: Adobe Illustrator 12.0.0, SVG Export Plug-In . SVG Version: 6.00 Build 51448)  -->
<!DOCTYPE svg PUBLIC "-//W3C//DTD SVG 1.1//EN" "http://www.w3.org/Graphics/SVG/1.1/DTD/svg11.dtd" [
	<!ENTITY ns_svg "http://www.w3.org/2000/svg">
	<!ENTITY ns_xlink "http://www.w3.org/1999/xlink">
]>
<svg  version="1.1" id="Layer_1" xmlns="&ns_svg;" xmlns:xlink="&ns_xlink;" width="612" height="792" viewBox="0 0 612 792"
	 overflow="visible" enable-background="new 0 0 612 792" xml:space="preserve">
<g id="Layer_1_1_">
	<g id="XMLID_1_">
		<g>
			<path fill="#353333" d="M600.63,187.85v438.9c0,45.46-34.97,75.18-75.18,75.18H86.55c-41.96,0-75.18-31.47-75.18-75.18v-438.9
				c0-43.71,33.22-75.18,75.18-75.18h438.9C567.41,112.67,600.63,144.14,600.63,187.85z M534.19,612.76l1.75-250.05h-52.46
				c5.25,15.74,6.988,33.22,6.988,50.71c0,97.92-82.18,178.35-183.6,178.35c-101.41,0-183.6-80.43-183.6-178.35
				c0-17.49,3.5-34.97,7-50.71H76.06v250.05c0,12.24,10.49,22.73,22.73,22.73h412.67C523.7,635.49,534.19,625,534.19,612.76z
				 M534.19,268.29v-62.95c0-13.99-12.24-26.23-26.23-26.23h-66.45v-1.75c-13.979,0-26.22,12.24-26.22,26.23v64.7
				c0,13.99,12.24,26.23,26.22,26.23h66.45C521.95,294.52,534.19,282.28,534.19,268.29z M425.78,406.43
				c0-64.698-52.46-115.41-118.91-115.41c-66.44,0-118.9,50.71-118.9,115.41c0,64.69,52.46,115.4,118.9,115.4
				C373.32,521.83,425.78,471.12,425.78,406.43z"/>
		</g>
	</g>
</g>
<g id="Layer_2">
</g>
</svg>
